<mxfile host="Electron" modified="2024-07-20T13:50:53.959Z" agent="Mozilla/5.0 (Macintosh; Intel Mac OS X 10_15_7) AppleWebKit/537.36 (KHTML, like Gecko) draw.io/24.6.4 Chrome/124.0.6367.207 Electron/30.0.6 Safari/537.36" etag="_iptvoYvMeZrkpbKmuUP" version="24.6.4" type="device">
  <diagram name="페이지-1" id="JEgsN9jZzLSVQp3l7ToV">
    <mxGraphModel dx="1137" dy="1059" grid="1" gridSize="10" guides="1" tooltips="1" connect="1" arrows="1" fold="1" page="1" pageScale="1" pageWidth="827" pageHeight="1169" math="0" shadow="0">
      <root>
        <mxCell id="0" />
        <mxCell id="1" parent="0" />
        <mxCell id="AHefoVSBo7bVPghSOMj6-16" value="infra" style="rounded=1;whiteSpace=wrap;html=1;fontStyle=1;fontColor=#3333FF;verticalAlign=top;fontSize=14;" vertex="1" parent="1">
          <mxGeometry x="200" y="440" width="250" height="130" as="geometry" />
        </mxCell>
        <mxCell id="AHefoVSBo7bVPghSOMj6-1" value="domain" style="rounded=1;whiteSpace=wrap;html=1;fontStyle=1;fontColor=#3333FF;verticalAlign=top;fontSize=14;" vertex="1" parent="1">
          <mxGeometry x="150" y="130" width="350" height="240" as="geometry" />
        </mxCell>
        <mxCell id="AHefoVSBo7bVPghSOMj6-3" value="&amp;lt;&amp;lt;component&amp;gt;&amp;gt;&lt;div&gt;&lt;br&gt;&lt;/div&gt;&lt;div&gt;외부 추천 시스템&lt;/div&gt;" style="rounded=0;whiteSpace=wrap;html=1;" vertex="1" parent="1">
          <mxGeometry x="540" y="491" width="160" height="50" as="geometry" />
        </mxCell>
        <mxCell id="AHefoVSBo7bVPghSOMj6-7" value="&lt;p style=&quot;margin:0px;margin-top:4px;text-align:center;&quot;&gt;&lt;i&gt;&amp;lt;&amp;lt;Interface&amp;gt;&amp;gt;&lt;/i&gt;&lt;br&gt;&lt;b&gt;ProductRecommendationService&lt;/b&gt;&lt;/p&gt;&lt;hr size=&quot;1&quot; style=&quot;border-style:solid;&quot;&gt;&lt;p style=&quot;margin:0px;margin-left:4px;&quot;&gt;&lt;span style=&quot;background-color: initial;&quot;&gt;+ getRecommendationsOf(id: ProductId): List&amp;lt;Product&amp;gt;&lt;/span&gt;&lt;/p&gt;" style="verticalAlign=top;align=left;overflow=fill;html=1;whiteSpace=wrap;fillColor=#f8cecc;strokeColor=#b85450;" vertex="1" parent="1">
          <mxGeometry x="165" y="262" width="320" height="70" as="geometry" />
        </mxCell>
        <mxCell id="AHefoVSBo7bVPghSOMj6-17" style="edgeStyle=orthogonalEdgeStyle;rounded=0;orthogonalLoop=1;jettySize=auto;html=1;dashed=1;endArrow=block;endFill=0;" edge="1" parent="1" source="AHefoVSBo7bVPghSOMj6-8" target="AHefoVSBo7bVPghSOMj6-7">
          <mxGeometry relative="1" as="geometry" />
        </mxCell>
        <mxCell id="AHefoVSBo7bVPghSOMj6-8" value="RecommendationClient" style="swimlane;fontStyle=1;align=center;verticalAlign=top;childLayout=stackLayout;horizontal=1;startSize=26;horizontalStack=0;resizeParent=1;resizeParentMax=0;resizeLast=0;collapsible=1;marginBottom=0;whiteSpace=wrap;html=1;fillColor=#f8cecc;strokeColor=#b85450;" vertex="1" parent="1">
          <mxGeometry x="245" y="490" width="160" height="52" as="geometry" />
        </mxCell>
        <mxCell id="AHefoVSBo7bVPghSOMj6-11" value="&amp;nbsp;&amp;nbsp;" style="text;strokeColor=none;fillColor=none;align=left;verticalAlign=top;spacingLeft=4;spacingRight=4;overflow=hidden;rotatable=0;points=[[0,0.5],[1,0.5]];portConstraint=eastwest;whiteSpace=wrap;html=1;" vertex="1" parent="AHefoVSBo7bVPghSOMj6-8">
          <mxGeometry y="26" width="160" height="26" as="geometry" />
        </mxCell>
        <mxCell id="AHefoVSBo7bVPghSOMj6-12" value="ProductId" style="swimlane;fontStyle=1;align=center;verticalAlign=top;childLayout=stackLayout;horizontal=1;startSize=26;horizontalStack=0;resizeParent=1;resizeParentMax=0;resizeLast=0;collapsible=1;marginBottom=0;whiteSpace=wrap;html=1;" vertex="1" parent="1">
          <mxGeometry x="210" y="182" width="100" height="52" as="geometry" />
        </mxCell>
        <mxCell id="AHefoVSBo7bVPghSOMj6-13" value="&amp;nbsp;&amp;nbsp;" style="text;strokeColor=none;fillColor=none;align=left;verticalAlign=top;spacingLeft=4;spacingRight=4;overflow=hidden;rotatable=0;points=[[0,0.5],[1,0.5]];portConstraint=eastwest;whiteSpace=wrap;html=1;" vertex="1" parent="AHefoVSBo7bVPghSOMj6-12">
          <mxGeometry y="26" width="100" height="26" as="geometry" />
        </mxCell>
        <mxCell id="AHefoVSBo7bVPghSOMj6-14" value="Product" style="swimlane;fontStyle=1;align=center;verticalAlign=top;childLayout=stackLayout;horizontal=1;startSize=26;horizontalStack=0;resizeParent=1;resizeParentMax=0;resizeLast=0;collapsible=1;marginBottom=0;whiteSpace=wrap;html=1;" vertex="1" parent="1">
          <mxGeometry x="340" y="182" width="110" height="52" as="geometry" />
        </mxCell>
        <mxCell id="AHefoVSBo7bVPghSOMj6-15" value="&amp;nbsp;&amp;nbsp;" style="text;strokeColor=none;fillColor=none;align=left;verticalAlign=top;spacingLeft=4;spacingRight=4;overflow=hidden;rotatable=0;points=[[0,0.5],[1,0.5]];portConstraint=eastwest;whiteSpace=wrap;html=1;" vertex="1" parent="AHefoVSBo7bVPghSOMj6-14">
          <mxGeometry y="26" width="110" height="26" as="geometry" />
        </mxCell>
        <mxCell id="AHefoVSBo7bVPghSOMj6-18" style="edgeStyle=orthogonalEdgeStyle;rounded=0;orthogonalLoop=1;jettySize=auto;html=1;entryX=0;entryY=0.75;entryDx=0;entryDy=0;dashed=1;endArrow=open;endFill=0;" edge="1" parent="1" source="AHefoVSBo7bVPghSOMj6-11" target="AHefoVSBo7bVPghSOMj6-3">
          <mxGeometry relative="1" as="geometry" />
        </mxCell>
        <mxCell id="AHefoVSBo7bVPghSOMj6-23" value="REST API 호출" style="edgeLabel;html=1;align=center;verticalAlign=middle;resizable=0;points=[];" vertex="1" connectable="0" parent="AHefoVSBo7bVPghSOMj6-18">
          <mxGeometry x="-0.1734" y="2" relative="1" as="geometry">
            <mxPoint x="7" y="1" as="offset" />
          </mxGeometry>
        </mxCell>
        <mxCell id="AHefoVSBo7bVPghSOMj6-19" value="도메인 모델과 외부 시스템 간의 모델 변환 처리" style="text;html=1;align=center;verticalAlign=middle;whiteSpace=wrap;rounded=0;fillColor=#d5e8d4;strokeColor=#82b366;sketch=1;curveFitting=1;jiggle=2;" vertex="1" parent="1">
          <mxGeometry x="275" y="600" width="240" height="30" as="geometry" />
        </mxCell>
        <mxCell id="AHefoVSBo7bVPghSOMj6-20" style="edgeStyle=orthogonalEdgeStyle;rounded=0;orthogonalLoop=1;jettySize=auto;html=1;entryX=0.644;entryY=1.038;entryDx=0;entryDy=0;entryPerimeter=0;curved=1;fillColor=#d5e8d4;strokeColor=#82b366;sketch=1;curveFitting=1;jiggle=2;" edge="1" parent="1" source="AHefoVSBo7bVPghSOMj6-19" target="AHefoVSBo7bVPghSOMj6-11">
          <mxGeometry relative="1" as="geometry" />
        </mxCell>
        <mxCell id="AHefoVSBo7bVPghSOMj6-22" style="edgeStyle=orthogonalEdgeStyle;rounded=0;orthogonalLoop=1;jettySize=auto;html=1;entryX=1;entryY=0.75;entryDx=0;entryDy=0;curved=1;fillColor=#d5e8d4;strokeColor=#82b366;flowAnimation=0;shadow=0;sketch=1;curveFitting=1;jiggle=2;" edge="1" parent="1" source="AHefoVSBo7bVPghSOMj6-21" target="AHefoVSBo7bVPghSOMj6-7">
          <mxGeometry relative="1" as="geometry" />
        </mxCell>
        <mxCell id="AHefoVSBo7bVPghSOMj6-21" value="도메인 관점에서 인터페이스 정의" style="text;html=1;align=center;verticalAlign=middle;whiteSpace=wrap;rounded=0;fillColor=#d5e8d4;strokeColor=#82b366;sketch=1;curveFitting=1;jiggle=2;" vertex="1" parent="1">
          <mxGeometry x="560" y="262" width="195" height="30" as="geometry" />
        </mxCell>
      </root>
    </mxGraphModel>
  </diagram>
</mxfile>
